<svg width="1920" height="1303" viewBox="0 0 1920 1303" fill="none" xmlns="http://www.w3.org/2000/svg">
<g clip-path="url(#clip0_1_2)">
<rect width="1920" height="1303" fill="url(#paint0_linear_1_2)"/>
<g clip-path="url(#clip1_1_2)">
<path d="M1669 906.272C1731.33 895.331 1772.99 835.949 1762.05 773.638C1751.11 711.328 1691.72 669.685 1629.39 680.626C1567.06 691.567 1525.4 750.949 1536.34 813.26C1547.28 875.57 1606.67 917.213 1669 906.272Z" fill="#FF6584"/>
<path d="M1248.7 1139.01C1253.68 1163.51 1262.09 1187.19 1273.67 1209.34C1273.94 1209.85 1274.21 1210.36 1274.49 1210.87L1320.21 1202.85C1320.07 1202.37 1319.93 1201.83 1319.78 1201.25C1310.58 1166.74 1255.57 956.587 1270.18 916.43C1268.86 919.711 1225.61 1028.31 1248.7 1139.01Z" fill="#E6E6E6"/>
<path d="M1264.85 1210.89C1265.33 1211.36 1265.82 1211.84 1266.32 1212.3L1300.62 1206.28C1300.28 1205.87 1299.89 1205.37 1299.43 1204.82C1291.97 1195.59 1269.83 1167.97 1248.7 1139.01C1225.99 1107.89 1204.44 1075.24 1203.48 1062.22C1203.59 1065.18 1207.45 1155.16 1264.85 1210.89Z" fill="#E6E6E6"/>
<path d="M1622.3 1154.18C1625.49 1175.74 1625.63 1197.65 1622.71 1219.25C1622.64 1219.75 1622.57 1220.24 1622.5 1220.74L1582.63 1227.74C1582.6 1227.31 1582.56 1226.83 1582.51 1226.3C1579.81 1195.29 1562.5 1006.69 1538.6 978.115C1540.65 980.413 1608.35 1056.58 1622.3 1154.18Z" fill="#E6E6E6"/>
<path d="M1630.4 1217.9C1630.15 1218.43 1629.88 1218.97 1629.61 1219.5L1599.71 1224.74C1599.86 1224.3 1600.04 1223.78 1600.25 1223.19C1603.63 1213.41 1613.57 1184.19 1622.3 1154.18C1631.67 1121.93 1639.64 1088.77 1636.56 1077.82C1637.35 1080.27 1660.9 1155.18 1630.4 1217.9Z" fill="#E6E6E6"/>
<path d="M1055.64 602.413L1071.62 584.287C1056.9 585.23 1052.35 594.144 1051.01 600.803C1038.91 598.1 1027.7 606.393 1027.7 606.393L1067.27 613.363C1064.51 608.682 1060.48 604.884 1055.64 602.413Z" fill="#3F3D56"/>
<path d="M1602.08 427.628L1618.06 409.502C1603.34 410.444 1598.79 419.359 1597.46 426.017C1585.35 423.315 1574.15 431.608 1574.15 431.608L1613.71 438.577C1610.95 433.897 1606.92 430.098 1602.08 427.628Z" fill="#3F3D56"/>
<path d="M1978.75 967.378C1980.92 979.693 1982.63 991.983 1983.9 1004.25C1994.05 1100.98 1977.03 1198.63 1934.73 1286.23C1929.21 1297.72 1923.27 1308.98 1916.92 1320.02C1900.46 1348.67 1881.36 1375.71 1859.85 1400.78L1738.34 1355.5L1645.49 1213.37C1645.49 1213.37 1708.85 997.181 1976.22 953.965C1977.11 958.411 1977.96 962.882 1978.75 967.378Z" fill="#3F3D56"/>
<path d="M1983.9 1004.25C1991.37 1076.56 1983.76 1149.63 1961.57 1218.85C1939.37 1288.08 1903.06 1351.95 1854.93 1406.45L1742.04 1364.38L1659.7 1238.33C1659.7 1238.33 1720.73 1030.12 1983.9 1004.25Z" fill="#199F33"/>
<path d="M1934.73 1286.23C1929.21 1297.72 1923.27 1308.98 1916.92 1320.02C1874.39 1394.22 1814.41 1456.93 1742.18 1502.74C1727.55 1512 1712.42 1520.57 1696.78 1528.43C1583.13 1581.05 1455.43 1595.2 1333.02 1568.75C1211.18 1538.16 1104.24 1465.16 1031.42 1362.83C1021.63 1349.06 1012.49 1334.77 1004 1319.98C1090.81 1229.54 1268.76 1090.62 1500.52 1154.57C1564.62 1172.26 1621.96 1188.58 1672.52 1203.53C1800.79 1241.29 1886.73 1269.66 1934.73 1286.23Z" fill="#3F3D56"/>
<path d="M1916.92 1320.02C1872.92 1396.55 1810.39 1460.79 1735.06 1506.83C1659.73 1552.87 1574.04 1579.24 1485.85 1583.5C1397.67 1587.76 1309.83 1569.79 1230.42 1531.23C1151.01 1492.67 1082.58 1434.76 1031.42 1362.83C1103.07 1282.46 1274.21 1130.58 1502.32 1193.52C1560.99 1209.71 1613.45 1224.64 1659.7 1238.33C1794.5 1278 1878.23 1306.35 1916.92 1320.02Z" fill="#199F33"/>
<path d="M1791.42 1467.38C1775.69 1480.09 1759.25 1491.9 1742.18 1502.74C1684.06 1539.54 1619.28 1564.56 1551.51 1576.37C1471.32 1590.41 1388.98 1585.68 1310.94 1562.55C1232.9 1539.41 1161.29 1498.5 1101.73 1443.04C1223.2 1408.27 1562.21 1330.62 1791.42 1467.38Z" fill="#3F3D56"/>
<path d="M1841.41 695.366L1841.41 695.382C1423.4 486.841 1033.26 753.755 1030.25 755.808L1030.25 755.792C1069.86 699.327 1120.24 651.23 1178.47 614.254C1236.71 577.278 1301.67 552.15 1369.64 540.309C1549.52 508.732 1724.08 572.554 1841.41 695.366Z" fill="#E6E6E6"/>
<path d="M1126.07 1127.41C1186.68 1105.14 1198.98 986.86 1153.55 863.224C1108.11 739.588 1022.13 657.414 961.521 679.684C900.908 701.953 888.607 820.233 934.047 943.87C979.486 1067.51 1065.46 1149.68 1126.07 1127.41Z" fill="#3F3D56"/>
<path d="M1168.33 1273.7C1115.39 993.904 975.334 747.2 973.926 744.743L965.908 749.332C967.309 751.778 1106.61 997.193 1159.26 1275.42L1168.33 1273.7Z" fill="#199F33"/>
<path d="M929.48 890.91L928.199 900.059L1046.95 916.663L1048.23 907.514L929.48 890.91Z" fill="#199F33"/>
<path d="M1139.14 844.053L1059.43 933.608L1066.33 939.749L1146.05 850.194L1139.14 844.053Z" fill="#199F33"/>
<path d="M1419.95 1034.15C1488.77 1022.06 1524.59 898.464 1499.94 758.077C1475.3 617.69 1399.53 513.677 1330.7 525.758C1261.88 537.84 1226.07 661.44 1250.71 801.827C1275.35 942.215 1351.12 1046.23 1419.95 1034.15Z" fill="#3F3D56"/>
<path d="M1436.86 1198.05C1434.22 889.921 1332.45 600.311 1331.42 597.424L1322 600.772C1323.02 603.645 1424.23 891.738 1426.86 1198.14L1436.86 1198.05Z" fill="#199F33"/>
<path d="M1256.02 744.552L1252.9 754.049L1376.16 794.525L1379.28 785.028L1256.02 744.552Z" fill="#199F33"/>
<path d="M1488.29 734.893L1386.2 814.963L1392.37 822.828L1494.46 742.758L1488.29 734.893Z" fill="#199F33"/>
<path d="M1946.89 857.36C1896.66 839.724 1845.06 826.275 1792.61 817.152C1502.55 766.366 1238.77 851.868 1157.69 1011.65C1209.71 824.208 1494.13 718.212 1809.62 773.446C1846.33 779.864 1882.66 788.363 1918.41 798.903C1929.11 817.778 1938.62 837.302 1946.89 857.36Z" fill="#E6E6E6"/>
<path d="M1529.67 643.657L1545.64 625.531C1530.92 626.473 1526.37 635.388 1525.04 642.046C1512.94 639.343 1501.73 647.636 1501.73 647.636L1541.29 654.606C1538.54 649.925 1534.5 646.127 1529.67 643.657Z" fill="#3F3D56"/>
</g>
</g>
<defs>
<linearGradient id="paint0_linear_1_2" x1="960" y1="0" x2="960" y2="1303" gradientUnits="userSpaceOnUse">
<stop stop-color="#3A87BE"/>
<stop offset="1" stop-color="#1F339A"/>
</linearGradient>
<clipPath id="clip0_1_2">
<rect width="1920" height="1303" fill="white"/>
</clipPath>
<clipPath id="clip1_1_2">
<rect width="1053" height="1138" fill="white" transform="translate(856 543.06) rotate(-9.95626)"/>
</clipPath>
</defs>
</svg>
